<svg width="48" height="48" viewBox="0 0 48 48" fill="none" xmlns="http://www.w3.org/2000/svg">
<path d="M19.08 33.3401C18.26 33.3401 17.58 32.6601 17.58 31.8401V25.0602L17.2 25.4801C16.64 26.1001 15.7 26.1401 15.08 25.6001C14.46 25.0401 14.42 24.1001 14.96 23.4801L17.96 20.1402C18.38 19.6802 19.04 19.5201 19.62 19.7401C20.2 19.9601 20.58 20.5202 20.58 21.1402V31.8401C20.58 32.6801 19.92 33.3401 19.08 33.3401Z" fill="white"/>
<path opacity="0.4" d="M24 6.95996C23.84 6.95996 23.68 6.97998 23.52 6.97998L25.16 4.93994C25.68 4.29994 25.58 3.33997 24.92 2.83997C24.28 2.31997 23.34 2.41996 22.82 3.07996L18.86 8.02002C18.84 8.04002 18.84 8.07998 18.82 8.09998C18.76 8.17998 18.72 8.28001 18.68 8.38001C18.64 8.46001 18.6 8.54002 18.58 8.64002C18.56 8.74002 18.56 8.82004 18.56 8.92004C18.56 9.02004 18.56 9.11997 18.56 9.21997C18.56 9.25997 18.56 9.27995 18.56 9.31995C18.58 9.37995 18.62 9.44 18.64 9.5C18.68 9.6 18.7 9.68001 18.76 9.76001C18.82 9.84001 18.88 9.92 18.96 10C19 10.04 19.02 10.1 19.08 10.14C19.1 10.16 19.14 10.1601 19.16 10.1801C19.22 10.2201 19.28 10.26 19.36 10.28C19.46 10.34 19.56 10.38 19.66 10.4C19.72 10.42 19.8 10.4199 19.86 10.4399C19.92 10.4399 19.96 10.46 20.02 10.46C20.06 10.46 20.12 10.44 20.16 10.42C20.22 10.42 20.28 10.42 20.36 10.42C21.64 10.12 22.84 9.97998 23.98 9.97998C32.96 9.97998 40.26 17.28 40.26 26.26C40.26 35.24 32.96 42.54 23.98 42.54C15 42.54 7.70001 35.24 7.70001 26.26C7.70001 22.78 8.84 19.42 11 16.54C11.5 15.88 11.36 14.9399 10.7 14.4399C10.04 13.9399 9.09998 14.08 8.59998 14.74C6.03998 18.14 4.70001 22.12 4.70001 26.26C4.70001 36.88 13.34 45.54 23.98 45.54C34.62 45.54 43.26 36.9 43.26 26.26C43.26 15.62 34.62 6.95996 24 6.95996Z" fill="white"/>
<path d="M28 33.3401C24.96 33.3401 22.5 30.8801 22.5 27.8401V25.1401C22.5 22.1001 24.96 19.6401 28 19.6401C31.04 19.6401 33.5 22.1001 33.5 25.1401V27.8401C33.5 30.8801 31.04 33.3401 28 33.3401ZM28 22.6602C26.62 22.6602 25.5 23.7802 25.5 25.1602V27.8601C25.5 29.2401 26.62 30.3601 28 30.3601C29.38 30.3601 30.5 29.2401 30.5 27.8601V25.1602C30.5 23.7802 29.38 22.6602 28 22.6602Z" fill="white"/>
</svg>
