<svg width="32" height="32" viewBox="0 0 32 32" fill="none" xmlns="http://www.w3.org/2000/svg">
<path opacity="0.4" d="M15.9998 29.3334C23.3636 29.3334 29.3332 23.3638 29.3332 16C29.3332 8.63622 23.3636 2.66669 15.9998 2.66669C8.63604 2.66669 2.6665 8.63622 2.6665 16C2.6665 23.3638 8.63604 29.3334 15.9998 29.3334Z" fill="#039855"/>
<path d="M14.1064 20.7733C13.8398 20.7733 13.5864 20.6666 13.3998 20.4799L9.62643 16.7066C9.23976 16.3199 9.23976 15.6799 9.62643 15.2933C10.0131 14.9066 10.6531 14.9066 11.0398 15.2933L14.1064 18.3599L20.9598 11.5066C21.3464 11.1199 21.9864 11.1199 22.3731 11.5066C22.7598 11.8933 22.7598 12.5333 22.3731 12.9199L14.8131 20.4799C14.6264 20.6666 14.3731 20.7733 14.1064 20.7733Z" fill="#039855"/>
</svg>
