<svg width="48" height="48" viewBox="0 0 48 48" fill="none" xmlns="http://www.w3.org/2000/svg">
<path opacity="0.4" d="M39.38 14.6998C38.88 14.0398 37.94 13.8999 37.28 14.3999C36.62 14.8999 36.48 15.8398 36.98 16.4998C39.14 19.3798 40.28 22.7398 40.28 26.2198C40.28 35.1998 32.98 42.4998 24 42.4998C15.02 42.4998 7.71997 35.1998 7.71997 26.2198C7.71997 17.2398 15.02 9.93979 24 9.93979C25.16 9.93979 26.34 10.0799 27.62 10.3799C27.68 10.3999 27.74 10.3799 27.82 10.3799C27.86 10.3799 27.92 10.4199 27.96 10.4199C28.02 10.4199 28.06 10.3999 28.12 10.3999C28.2 10.3999 28.26 10.3798 28.32 10.3598C28.42 10.3398 28.52 10.2998 28.62 10.2398C28.68 10.1998 28.76 10.1799 28.82 10.1399C28.84 10.1199 28.88 10.1198 28.9 10.0998C28.96 10.0598 28.98 9.99981 29.02 9.95981C29.1 9.87981 29.16 9.81982 29.22 9.71982C29.28 9.63982 29.3 9.53981 29.34 9.45981C29.36 9.39981 29.4 9.33988 29.42 9.27988C29.42 9.23988 29.42 9.2199 29.42 9.1799C29.44 9.0799 29.44 8.97985 29.42 8.87985C29.42 8.77985 29.42 8.69982 29.4 8.59982C29.38 8.51982 29.34 8.43981 29.3 8.33981C29.26 8.23981 29.22 8.13991 29.16 8.05991C29.14 8.03991 29.14 7.99983 29.12 7.97983L25.16 3.03989C24.64 2.39989 23.7 2.2999 23.06 2.7999C22.42 3.3199 22.32 4.25987 22.82 4.89987L24.46 6.93979C24.3 6.93979 24.14 6.91989 23.98 6.91989C13.36 6.91989 4.70001 15.5598 4.70001 26.1998C4.70001 36.8398 13.34 45.4798 23.98 45.4798C34.62 45.4798 43.26 36.8398 43.26 26.1998C43.28 22.0798 41.92 18.0998 39.38 14.6998Z" fill="white"/>
<path d="M19.08 33.3401C18.26 33.3401 17.58 32.6601 17.58 31.8401V25.0602L17.2 25.4801C16.64 26.1001 15.7 26.1401 15.08 25.6001C14.46 25.0401 14.42 24.1001 14.96 23.4801L17.96 20.1402C18.38 19.6802 19.04 19.5201 19.62 19.7401C20.2 19.9601 20.58 20.5202 20.58 21.1402V31.8401C20.58 32.6801 19.92 33.3401 19.08 33.3401Z" fill="white"/>
<path d="M28 33.3401C24.96 33.3401 22.5 30.8801 22.5 27.8401V25.1401C22.5 22.1001 24.96 19.6401 28 19.6401C31.04 19.6401 33.5 22.1001 33.5 25.1401V27.8401C33.5 30.8801 31.04 33.3401 28 33.3401ZM28 22.6602C26.62 22.6602 25.5 23.7802 25.5 25.1602V27.8601C25.5 29.2401 26.62 30.3601 28 30.3601C29.38 30.3601 30.5 29.2401 30.5 27.8601V25.1602C30.5 23.7802 29.38 22.6602 28 22.6602Z" fill="white"/>
</svg>
