<svg width="24" height="24" viewBox="0 0 24 24" fill="none" xmlns="http://www.w3.org/2000/svg">
<path d="M13.3 8.11001L14.62 10.75C14.8 11.11 15.28 11.47 15.68 11.53L18.07 11.93C19.6 12.19 19.96 13.29 18.86 14.39L17 16.25C16.69 16.56 16.51 17.17 16.61 17.61L17.14 19.92C17.56 21.74 16.59 22.45 14.98 21.5L12.74 20.17C12.33 19.93 11.67 19.93 11.26 20.17L9.01996 21.5C7.40996 22.45 6.43995 21.74 6.85995 19.92L7.38998 17.61C7.48998 17.18 7.30997 16.57 6.99997 16.25L5.13998 14.39C4.03998 13.29 4.39996 12.18 5.92996 11.93L8.31997 11.53C8.71997 11.46 9.19997 11.11 9.37997 10.75L10.7 8.11001C11.41 6.68001 12.59 6.68001 13.3 8.11001Z" fill="#101323"/>
<path opacity="0.4" d="M6 9.75C5.59 9.75 5.25 9.41 5.25 9V2C5.25 1.59 5.59 1.25 6 1.25C6.41 1.25 6.75 1.59 6.75 2V9C6.75 9.41 6.41 9.75 6 9.75Z" fill="#101323"/>
<path opacity="0.4" d="M18 9.75C17.59 9.75 17.25 9.41 17.25 9V2C17.25 1.59 17.59 1.25 18 1.25C18.41 1.25 18.75 1.59 18.75 2V9C18.75 9.41 18.41 9.75 18 9.75Z" fill="#101323"/>
<path opacity="0.4" d="M12 4.75C11.59 4.75 11.25 4.41 11.25 4V2C11.25 1.59 11.59 1.25 12 1.25C12.41 1.25 12.75 1.59 12.75 2V4C12.75 4.41 12.41 4.75 12 4.75Z" fill="#101323"/>
</svg>
